<?xml version="1.0" encoding="UTF-8" standalone="no"?>
<svg
   xmlns:dc="http://purl.org/dc/elements/1.1/"
   xmlns:cc="http://creativecommons.org/ns#"
   xmlns:rdf="http://www.w3.org/1999/02/22-rdf-syntax-ns#"
   xmlns:svg="http://www.w3.org/2000/svg"
   xmlns="http://www.w3.org/2000/svg"
   xmlns:sodipodi="http://sodipodi.sourceforge.net/DTD/sodipodi-0.dtd"
   xmlns:inkscape="http://www.inkscape.org/namespaces/inkscape"
   width="12.000029"
   height="11.4967"
   viewBox="0 0 12.000029 11.4967"
   version="1.1"
   id="svg4"
   sodipodi:docname="star.svg"
   inkscape:version="0.92.4 (5da689c313, 2019-01-14)"
   style="fill:none">
  <metadata
     id="metadata10">
    <rdf:RDF>
      <cc:Work
         rdf:about="">
        <dc:format>image/svg+xml</dc:format>
        <dc:type
           rdf:resource="http://purl.org/dc/dcmitype/StillImage" />
      </cc:Work>
    </rdf:RDF>
  </metadata>
  <defs
     id="defs8" />
  <sodipodi:namedview
     pagecolor="#ffffff"
     bordercolor="#666666"
     borderopacity="1"
     objecttolerance="10"
     gridtolerance="10"
     guidetolerance="10"
     inkscape:pageopacity="0"
     inkscape:pageshadow="2"
     inkscape:window-width="1920"
     inkscape:window-height="1017"
     id="namedview6"
     showgrid="false"
     inkscape:zoom="24.98444"
     inkscape:cx="6.8094803"
     inkscape:cy="1.7431942"
     inkscape:window-x="-8"
     inkscape:window-y="-8"
     inkscape:window-maximized="1"
     inkscape:current-layer="svg4" />
  <path
     d="M 11.7396,5.21011 C 11.9758,4.97992 12.0592,4.64208 11.9573,4.32802 11.8552,4.01397 11.5892,3.78978 11.2624,3.74221 L 8.35684,3.32002 C 8.23309,3.302 8.12617,3.22439 8.0709,3.11218 L 6.77192,0.47961 C 6.62606,0.183818 6.33003,0 6.00012,0 5.67045,0 5.37442,0.183818 5.22856,0.47961 L 3.92934,3.11242 C 3.87407,3.22463 3.76691,3.30224 3.64316,3.32027 L 0.73762697,3.74245 c -0.326548,0.04733 -0.592785,0.27176 -0.694906,0.58581 -0.1018811,0.31406 -0.018502,0.6519 0.217699,0.88209 L 2.36268,7.25951 C 2.4523,7.34697 2.49339,7.47288 2.47225,7.59591 L 1.9763,10.4894 c -0.04397,0.2547 0.02283,0.5025 0.18766,0.6978 0.25615,0.3045 0.70332,0.3972 1.06086,0.2093 l 2.59845,-1.3663 c 0.10861,-0.05691 0.24533,-0.05643 0.3537,0 l 2.59869,1.3663 c 0.12639,0.0666 0.26119,0.1002 0.40031,0.1002 0.25399,0 0.49475,-0.1129 0.66031,-0.3095 0.16512,-0.1953 0.23162,-0.4436 0.18762,-0.6978 L 9.52775,7.59591 C 9.50661,7.47264 9.5477,7.34697 9.63732,7.25951 Z"
     id="path2"
     inkscape:connector-curvature="0"
     style="fill:#9d2929" />
</svg>
