<?xml version="1.0" encoding="UTF-8" standalone="no"?>
<svg
   xmlns:dc="http://purl.org/dc/elements/1.1/"
   xmlns:cc="http://creativecommons.org/ns#"
   xmlns:rdf="http://www.w3.org/1999/02/22-rdf-syntax-ns#"
   xmlns:svg="http://www.w3.org/2000/svg"
   xmlns="http://www.w3.org/2000/svg"
   xmlns:sodipodi="http://sodipodi.sourceforge.net/DTD/sodipodi-0.dtd"
   xmlns:inkscape="http://www.inkscape.org/namespaces/inkscape"
   width="12.000029"
   height="11.497066"
   viewBox="0 0 12.000029 11.497066"
   version="1.1"
   id="svg4"
   sodipodi:docname="star_empty.svg"
   style="fill:none"
   inkscape:version="0.92.4 (5da689c313, 2019-01-14)">
  <metadata
     id="metadata10">
    <rdf:RDF>
      <cc:Work
         rdf:about="">
        <dc:format>image/svg+xml</dc:format>
        <dc:type
           rdf:resource="http://purl.org/dc/dcmitype/StillImage" />
      </cc:Work>
    </rdf:RDF>
  </metadata>
  <defs
     id="defs8" />
  <sodipodi:namedview
     pagecolor="#ffffff"
     bordercolor="#666666"
     borderopacity="1"
     objecttolerance="10"
     gridtolerance="10"
     guidetolerance="10"
     inkscape:pageopacity="0"
     inkscape:pageshadow="2"
     inkscape:window-width="640"
     inkscape:window-height="480"
     id="namedview6"
     showgrid="false"
     inkscape:zoom="19.666667"
     inkscape:cx="6"
     inkscape:cy="5.497066"
     inkscape:window-x="156"
     inkscape:window-y="156"
     inkscape:window-maximized="0"
     inkscape:current-layer="svg4" />
  <path
     d="M 11.7396,5.21046 C 11.9758,4.98026 12.0592,4.64241 11.9573,4.32835 11.8552,4.01429 11.5892,3.7901 11.2624,3.74252 L 8.35677,3.32033 C 8.23302,3.30231 8.12609,3.2247 8.07082,3.11248 L 6.77181,0.479619 C 6.62596,0.183822 6.32992,0 6,0 5.67032,0 5.37428,0.183822 5.22843,0.479619 L 3.92918,3.11248 C 3.87391,3.2247 3.76674,3.30231 3.64299,3.32033 L 0.737401,3.74276 C 0.410847,3.7901 0.144845,4.01429 0.0427218,4.32835 -0.0591613,4.64241 0.0242195,4.98026 0.260425,5.21046 L 2.36272,7.25965 C 2.45235,7.34712 2.49344,7.47303 2.4723,7.59606 L 1.9761,10.4899 c -0.05575,0.3251 0.07521,0.6473 0.34217,0.8415 0.26672,0.1944 0.61394,0.2196 0.90638,0.0656 l 2.5985,-1.3663 c 0.11077,-0.05817 0.24293,-0.05817 0.3537,0 l 2.59874,1.3663 c 0.12688,0.0668 0.26432,0.0997 0.40105,0.0997 0.17757,0 0.35443,-0.0555 0.50533,-0.1653 0.26696,-0.1942 0.39793,-0.5164 0.34213,-0.8415 L 9.5277,7.5963 C 9.50656,7.47303 9.54765,7.34736 9.63727,7.25989 Z M 9.05433,7.67752 9.55053,10.5711 C 9.57552,10.7167 9.51905,10.8558 9.39939,10.9428 9.27948,11.0296 9.13026,11.0401 8.9993,10.9719 L 6.40056,9.60537 C 6.27537,9.53977 6.13745,9.50661 6,9.50661 c -0.13745,0 -0.27513,0.03316 -0.40056,0.099 L 3.00118,10.9719 C 2.86974,11.0401 2.72052,11.0296 2.60085,10.9428 2.48119,10.8558 2.42496,10.7169 2.44971,10.5711 L 2.94591,7.67752 C 2.99373,7.3983 2.90122,7.11331 2.69841,6.9158 L 0.59587,4.86636 C 0.489902,4.76303 0.453859,4.61742 0.499754,4.47685 0.545409,4.33604 0.660028,4.23944 0.806364,4.21806 L 3.71171,3.79587 C 3.99213,3.75526 4.23459,3.57936 4.35978,3.32514 L 5.65903,0.692276 c 0.06536,-0.13264 0.19295,-0.211695 0.34073,-0.211695 0.14802,0 0.27537,0.079055 0.34097,0.211695 L 7.63998,3.32514 C 7.76517,3.57936 8.00739,3.75526 8.2878,3.79587 l 2.9056,0.42219 c 0.1463,0.02138 0.261,0.11798 0.3066,0.25879 0.0457,0.14057 0.0099,0.28618 -0.0961,0.38951 L 9.30159,6.91556 C 9.09878,7.11331 9.00627,7.39806 9.05433,7.67752 Z"
     id="path2"
     inkscape:connector-curvature="0"
     style="fill:#9d2929" />
</svg>
